<global>
amp_veltrack=0
ampeg_release=6.00

<group>
group_label=RR5
seq_length=4
seq_position=1

<region>
hivel=103
key=A#2
lovel=78
sample=Timpani_Soft_Mallet_staccato_F_A#2_RR5.opus

<region>
hivel=103
key=a2
lovel=78
sample=Timpani_Soft_Mallet_staccato_F_A2_RR5.opus

<region>
hivel=103
key=A3
lovel=78
sample=Timpani_Soft_Mallet_staccato_F_A3_RR5.opus

<region>
hivel=103
key=B2
lovel=78
sample=Timpani_Soft_Mallet_staccato_F_B2_RR5.opus

<region>
hivel=103
key=C#2
lovel=78
sample=Timpani_Soft_Mallet_staccato_F_C#2_RR5.opus

<region>
hivel=103
key=C#3
lovel=78
sample=Timpani_Soft_Mallet_staccato_F_C#3_RR5.opus

<region>
hivel=103
key=C2
lovel=78
sample=Timpani_Soft_Mallet_staccato_F_C2_RR5.opus

<region>
hivel=103
key=C3
lovel=78
sample=Timpani_Soft_Mallet_staccato_F_C3_RR5.opus

<region>
hivel=103
key=D#2
lovel=78
sample=Timpani_Soft_Mallet_staccato_F_D#2_RR5.opus

<region>
hivel=103
key=D#3
lovel=78
sample=Timpani_Soft_Mallet_staccato_F_D#3_RR5.opus

<region>
hivel=103
key=D2
lovel=78
sample=Timpani_Soft_Mallet_staccato_F_D2_RR5.opus

<region>
hivel=103
key=D3
lovel=78
sample=Timpani_Soft_Mallet_staccato_F_D3_RR5.opus

<region>
hivel=103
key=E2
lovel=78
sample=Timpani_Soft_Mallet_staccato_F_E2_RR5.opus

<region>
hivel=103
key=E3
lovel=78
sample=Timpani_Soft_Mallet_staccato_F_E3_RR5.opus

<region>
hivel=103
key=F#2
lovel=78
sample=Timpani_Soft_Mallet_staccato_F_F#2_RR5.opus

<region>
hivel=103
key=F#3
lovel=78
sample=Timpani_Soft_Mallet_staccato_F_F#3_RR5.opus

<region>
hivel=103
key=F2
lovel=78
sample=Timpani_Soft_Mallet_staccato_F_F2_RR5.opus

<region>
hivel=103
key=F3
lovel=78
sample=Timpani_Soft_Mallet_staccato_F_F3_RR5.opus

<region>
hivel=103
key=G#2
lovel=78
sample=Timpani_Soft_Mallet_staccato_F_G#2_RR5.opus

<region>
hivel=103
key=G#3
lovel=78
sample=Timpani_Soft_Mallet_staccato_F_G#3_RR5.opus

<region>
hivel=103
key=G2
lovel=78
sample=Timpani_Soft_Mallet_staccato_F_G2_RR5.opus

<region>
hivel=103
key=G3
lovel=78
sample=Timpani_Soft_Mallet_staccato_F_G3_RR5.opus

<region>
hivel=127
key=A#2
lovel=104
sample=Timpani_Soft_Mallet_staccato_FF_A#2_RR5.opus

<region>
hivel=127
key=A2
lovel=104
sample=Timpani_Soft_Mallet_staccato_FF_A2_RR5.opus

<region>
hivel=127
key=A3
lovel=104
sample=Timpani_Soft_Mallet_staccato_FF_A3_RR5.opus

<region>
hivel=127
key=B2
lovel=104
sample=Timpani_Soft_Mallet_staccato_FF_B2_RR5.opus

<region>
hivel=127
key=C#2
lovel=104
sample=Timpani_Soft_Mallet_staccato_FF_C#2_RR5.opus

<region>
hivel=127
key=C#3
lovel=104
sample=Timpani_Soft_Mallet_staccato_FF_C#3_RR5.opus

<region>
hivel=127
key=C2
lovel=104
sample=Timpani_Soft_Mallet_staccato_FF_C2_RR5.opus

<region>
hivel=127
key=C3
lovel=104
sample=Timpani_Soft_Mallet_staccato_FF_C3_RR5.opus

<region>
hivel=127
key=D#2
lovel=104
sample=Timpani_Soft_Mallet_staccato_FF_D#2_RR5.opus

<region>
hivel=127
key=D#3
lovel=104
sample=Timpani_Soft_Mallet_staccato_FF_D#3_RR5.opus

<region>
hivel=127
key=D2
lovel=104
sample=Timpani_Soft_Mallet_staccato_FF_D2_RR5.opus

<region>
hivel=127
key=D3
lovel=104
sample=Timpani_Soft_Mallet_staccato_FF_D3_RR5.opus

<region>
hivel=127
key=E2
lovel=104
sample=Timpani_Soft_Mallet_staccato_FF_E2_RR5.opus

<region>
hivel=127
key=E3
lovel=104
sample=Timpani_Soft_Mallet_staccato_FF_E3_RR5.opus

<region>
hivel=127
key=F#2
lovel=104
sample=Timpani_Soft_Mallet_staccato_FF_F#2_RR5.opus

<region>
hivel=127
key=F#3
lovel=104
sample=Timpani_Soft_Mallet_staccato_FF_F#3_RR5.opus

<region>
hivel=127
key=F2
lovel=104
sample=Timpani_Soft_Mallet_staccato_FF_F2_RR5.opus

<region>
hivel=127
key=F3
lovel=104
sample=Timpani_Soft_Mallet_staccato_FF_F3_RR5.opus

<region>
hivel=127
key=G#2
lovel=104
sample=Timpani_Soft_Mallet_staccato_FF_G#2_RR5.opus

<region>
hivel=127
key=G#3
lovel=104
sample=Timpani_Soft_Mallet_staccato_FF_G#3_RR5.opus

<region>
hivel=127
key=G2
lovel=104
sample=Timpani_Soft_Mallet_staccato_FF_G2_RR5.opus

<region>
hivel=127
key=G3
lovel=104
sample=Timpani_Soft_Mallet_staccato_FF_G3_RR5.opus

<region>
hivel=77
key=A#2
lovel=52
sample=Timpani_Soft_Mallet_staccato_MF_A#2_RR5.opus

<region>
hivel=77
key=A2
lovel=52
sample=Timpani_Soft_Mallet_staccato_MF_A2_RR5.opus

<region>
hivel=77
key=A3
lovel=52
sample=Timpani_Soft_Mallet_staccato_MF_A3_RR5.opus

<region>
hivel=77
key=B2
lovel=52
sample=Timpani_Soft_Mallet_staccato_MF_B2_RR5.opus

<region>
hivel=77
key=C#2
lovel=52
sample=Timpani_Soft_Mallet_staccato_MF_C#2_RR5.opus

<region>
hivel=77
key=C#3
lovel=52
sample=Timpani_Soft_Mallet_staccato_MF_C#3_RR5.opus

<region>
hivel=77
key=C2
lovel=52
sample=Timpani_Soft_Mallet_staccato_MF_C2_RR5.opus

<region>
hivel=77
key=C3
lovel=52
sample=Timpani_Soft_Mallet_staccato_MF_C3_RR5.opus

<region>
hivel=77
key=D#2
lovel=52
sample=Timpani_Soft_Mallet_staccato_MF_D#2_RR5.opus

<region>
hivel=77
key=D#3
lovel=52
sample=Timpani_Soft_Mallet_staccato_MF_D#3_RR5.opus

<region>
hivel=77
key=D2
lovel=52
sample=Timpani_Soft_Mallet_staccato_MF_D2_RR5.opus

<region>
hivel=77
key=D3
lovel=52
sample=Timpani_Soft_Mallet_staccato_MF_D3_RR5.opus

<region>
hivel=77
key=E2
lovel=52
sample=Timpani_Soft_Mallet_staccato_MF_E2_RR5.opus

<region>
hivel=77
key=E3
lovel=52
sample=Timpani_Soft_Mallet_staccato_MF_E3_RR5.opus

<region>
hivel=77
key=F#2
lovel=52
sample=Timpani_Soft_Mallet_staccato_MF_F#2_RR5.opus

<region>
hivel=77
key=F#3
lovel=52
sample=Timpani_Soft_Mallet_staccato_MF_F#3_RR5.opus

<region>
hivel=77
key=F2
lovel=52
sample=Timpani_Soft_Mallet_staccato_MF_F2_RR5.opus

<region>
hivel=77
key=F3
lovel=52
sample=Timpani_Soft_Mallet_staccato_MF_F3_RR5.opus

<region>
hivel=77
key=G#2
lovel=52
sample=Timpani_Soft_Mallet_staccato_MF_G#2_RR5.opus

<region>
hivel=77
key=G#3
lovel=52
sample=Timpani_Soft_Mallet_staccato_MF_G#3_RR5.opus

<region>
hivel=77
key=G2
lovel=52
sample=Timpani_Soft_Mallet_staccato_MF_G2_RR5.opus

<region>
hivel=77
key=G3
lovel=52
sample=Timpani_Soft_Mallet_staccato_MF_G3_RR5.opus

<region>
hivel=51
key=A#2
lovel=26
sample=Timpani_Soft_Mallet_staccato_MP_A#2_RR5.opus

<region>
hivel=51
key=A2
lovel=26
sample=Timpani_Soft_Mallet_staccato_MP_A2_RR5.opus

<region>
hivel=51
key=A3
lovel=26
sample=Timpani_Soft_Mallet_staccato_MP_A3_RR5.opus

<region>
hivel=51
key=B2
lovel=26
sample=Timpani_Soft_Mallet_staccato_MP_B2_RR5.opus

<region>
hivel=51
key=C#2
lovel=26
sample=Timpani_Soft_Mallet_staccato_MP_C#2_RR5.opus

<region>
hivel=51
key=C#3
lovel=26
sample=Timpani_Soft_Mallet_staccato_MP_C#3_RR5.opus

<region>
hivel=51
key=C2
lovel=26
sample=Timpani_Soft_Mallet_staccato_MP_C2_RR5.opus

<region>
hivel=51
key=C3
lovel=26
sample=Timpani_Soft_Mallet_staccato_MP_C3_RR5.opus

<region>
hivel=51
key=D#2
lovel=26
sample=Timpani_Soft_Mallet_staccato_MP_D#2_RR5.opus

<region>
hivel=51
key=D#3
lovel=26
sample=Timpani_Soft_Mallet_staccato_MP_D#3_RR5.opus

<region>
hivel=51
key=D2
lovel=26
sample=Timpani_Soft_Mallet_staccato_MP_D2_RR5.opus

<region>
hivel=51
key=D3
lovel=26
sample=Timpani_Soft_Mallet_staccato_MP_D3_RR5.opus

<region>
hivel=51
key=E2
lovel=26
sample=Timpani_Soft_Mallet_staccato_MP_E2_RR5.opus

<region>
hivel=51
key=E3
lovel=26
sample=Timpani_Soft_Mallet_staccato_MP_E3_RR5.opus

<region>
hivel=51
key=F#2
lovel=26
sample=Timpani_Soft_Mallet_staccato_MP_F#2_RR5.opus

<region>
hivel=51
key=F#3
lovel=26
sample=Timpani_Soft_Mallet_staccato_MP_F#3_RR5.opus

<region>
hivel=51
key=F2
lovel=26
sample=Timpani_Soft_Mallet_staccato_MP_F2_RR5.opus

<region>
hivel=51
key=F3
lovel=26
sample=Timpani_Soft_Mallet_staccato_MP_F3_RR5.opus

<region>
hivel=51
key=G#2
lovel=26
sample=Timpani_Soft_Mallet_staccato_MP_G#2_RR5.opus

<region>
hivel=51
key=G#3
lovel=26
sample=Timpani_Soft_Mallet_staccato_MP_G#3_RR5.opus

<region>
hivel=51
key=G2
lovel=26
sample=Timpani_Soft_Mallet_staccato_MP_G2_RR5.opus

<region>
hivel=51
key=G3
lovel=26
sample=Timpani_Soft_Mallet_staccato_MP_G3_RR5.opus

<region>
hivel=25
key=A#2
lovel=0
sample=Timpani_Soft_Mallet_staccato_P_A#2_RR5.opus

<region>
hivel=25
key=A2
lovel=0
sample=Timpani_Soft_Mallet_staccato_P_A2_RR5.opus

<region>
hivel=25
key=A3
lovel=0
sample=Timpani_Soft_Mallet_staccato_P_A3_RR5.opus

<region>
hivel=25
key=B2
lovel=0
sample=Timpani_Soft_Mallet_staccato_P_B2_RR5.opus

<region>
hivel=25
key=C#2
lovel=0
sample=Timpani_Soft_Mallet_staccato_P_C#2_RR5.opus

<region>
hivel=25
key=C#3
lovel=0
sample=Timpani_Soft_Mallet_staccato_P_C#3_RR5.opus

<region>
hivel=25
key=c2
lovel=0
sample=Timpani_Soft_Mallet_staccato_P_C2_RR5.opus

<region>
hivel=25
key=C3
lovel=0
sample=Timpani_Soft_Mallet_staccato_P_C3_RR5.opus

<region>
hivel=25
key=D#2
lovel=0
sample=Timpani_Soft_Mallet_staccato_P_D#2_RR5.opus

<region>
hivel=25
key=D#3
lovel=0
sample=Timpani_Soft_Mallet_staccato_P_D#3_RR5.opus

<region>
hivel=25
key=D2
lovel=0
sample=Timpani_Soft_Mallet_staccato_P_D2_RR5.opus

<region>
hivel=25
key=D3
lovel=0
sample=Timpani_Soft_Mallet_staccato_P_D3_RR5.opus

<region>
hivel=25
key=E2
lovel=0
sample=Timpani_Soft_Mallet_staccato_P_E2_RR5.opus

<region>
hivel=25
key=E3
lovel=0
sample=Timpani_Soft_Mallet_staccato_P_E3_RR5.opus

<region>
hivel=25
key=F#2
lovel=0
sample=Timpani_Soft_Mallet_staccato_P_F#2_RR5.opus

<region>
hivel=25
key=F#3
lovel=0
sample=Timpani_Soft_Mallet_staccato_P_F#3_RR5.opus

<region>
hivel=25
key=F2
lovel=0
sample=Timpani_Soft_Mallet_staccato_P_F2_RR5.opus

<region>
hivel=25
key=F3
lovel=0
sample=Timpani_Soft_Mallet_staccato_P_F3_RR5.opus

<region>
hivel=25
key=G#2
lovel=0
sample=Timpani_Soft_Mallet_staccato_P_G#2_RR5.opus

<region>
hivel=25
key=G#3
lovel=0
sample=Timpani_Soft_Mallet_staccato_P_G#3_RR5.opus

<region>
hivel=25
key=g2
lovel=0
sample=Timpani_Soft_Mallet_staccato_P_G2_RR5.opus

<region>
hivel=25
key=G3
lovel=0
sample=Timpani_Soft_Mallet_staccato_P_G3_RR5.opus

<group>
group_label=RR6
seq_length=4
seq_position=2

<region>
hivel=103
key=A#2
lovel=78
sample=Timpani_Soft_Mallet_staccato_F_A#2_RR6.opus

<region>
hivel=103
key=A2
lovel=78
sample=Timpani_Soft_Mallet_staccato_F_A2_RR6.opus

<region>
hivel=103
key=A3
lovel=78
sample=Timpani_Soft_Mallet_staccato_F_A3_RR6.opus

<region>
hivel=103
key=B2
lovel=78
sample=Timpani_Soft_Mallet_staccato_F_B2_RR6.opus

<region>
hivel=103
key=C#2
lovel=78
sample=Timpani_Soft_Mallet_staccato_F_C#2_RR6.opus

<region>
hivel=103
key=C#3
lovel=78
sample=Timpani_Soft_Mallet_staccato_F_C#3_RR6.opus

<region>
hivel=103
key=C2
lovel=78
sample=Timpani_Soft_Mallet_staccato_F_C2_RR6.opus

<region>
hivel=103
key=C3
lovel=78
sample=Timpani_Soft_Mallet_staccato_F_C3_RR6.opus

<region>
hivel=103
key=D#2
lovel=78
sample=Timpani_Soft_Mallet_staccato_F_D#2_RR6.opus

<region>
hivel=103
key=D#3
lovel=78
sample=Timpani_Soft_Mallet_staccato_F_D#3_RR6.opus

<region>
hivel=103
key=D2
lovel=78
sample=Timpani_Soft_Mallet_staccato_F_D2_RR6.opus

<region>
hivel=103
key=D3
lovel=78
sample=Timpani_Soft_Mallet_staccato_F_D3_RR6.opus

<region>
hivel=103
key=E2
lovel=78
sample=Timpani_Soft_Mallet_staccato_F_E2_RR6.opus

<region>
hivel=103
key=E3
lovel=78
sample=Timpani_Soft_Mallet_staccato_F_E3_RR6.opus

<region>
hivel=103
key=F#2
lovel=78
sample=Timpani_Soft_Mallet_staccato_F_F#2_RR6.opus

<region>
hivel=103
key=F#3
lovel=78
sample=Timpani_Soft_Mallet_staccato_F_F#3_RR6.opus

<region>
hivel=103
key=F2
lovel=78
sample=Timpani_Soft_Mallet_staccato_F_F2_RR6.opus

<region>
hivel=103
key=F3
lovel=78
sample=Timpani_Soft_Mallet_staccato_F_F3_RR6.opus

<region>
hivel=103
key=G#2
lovel=78
sample=Timpani_Soft_Mallet_staccato_F_G#2_RR6.opus

<region>
hivel=103
key=G#3
lovel=78
sample=Timpani_Soft_Mallet_staccato_F_G#3_RR6.opus

<region>
hivel=103
key=G2
lovel=78
sample=Timpani_Soft_Mallet_staccato_F_G2_RR6.opus

<region>
hivel=103
key=G3
lovel=78
sample=Timpani_Soft_Mallet_staccato_F_G3_RR6.opus

<region>
hivel=127
key=A#2
lovel=104
sample=Timpani_Soft_Mallet_staccato_FF_A#2_RR6.opus

<region>
hivel=127
key=A2
lovel=104
sample=Timpani_Soft_Mallet_staccato_FF_A2_RR6.opus

<region>
hivel=127
key=A3
lovel=104
sample=Timpani_Soft_Mallet_staccato_FF_A3_RR6.opus

<region>
hivel=127
key=B2
lovel=104
sample=Timpani_Soft_Mallet_staccato_FF_B2_RR6.opus

<region>
hivel=127
key=C#2
lovel=104
sample=Timpani_Soft_Mallet_staccato_FF_C#2_RR6.opus

<region>
hivel=127
key=C#3
lovel=104
sample=Timpani_Soft_Mallet_staccato_FF_C#3_RR6.opus

<region>
hivel=127
key=C2
lovel=104
sample=Timpani_Soft_Mallet_staccato_FF_C2_RR6.opus

<region>
hivel=127
key=C3
lovel=104
sample=Timpani_Soft_Mallet_staccato_FF_C3_RR6.opus

<region>
hivel=127
key=D#2
lovel=104
sample=Timpani_Soft_Mallet_staccato_FF_D#2_RR6.opus

<region>
hivel=127
key=D#3
lovel=104
sample=Timpani_Soft_Mallet_staccato_FF_D#3_RR6.opus

<region>
hivel=127
key=D2
lovel=104
sample=Timpani_Soft_Mallet_staccato_FF_D2_RR6.opus

<region>
hivel=127
key=D3
lovel=104
sample=Timpani_Soft_Mallet_staccato_FF_D3_RR6.opus

<region>
hivel=127
key=E2
lovel=104
sample=Timpani_Soft_Mallet_staccato_FF_E2_RR6.opus

<region>
hivel=127
key=E3
lovel=104
sample=Timpani_Soft_Mallet_staccato_FF_E3_RR6.opus

<region>
hivel=127
key=F#2
lovel=104
sample=Timpani_Soft_Mallet_staccato_FF_F#2_RR6.opus

<region>
hivel=127
key=F#3
lovel=104
sample=Timpani_Soft_Mallet_staccato_FF_F#3_RR6.opus

<region>
hivel=127
key=F2
lovel=104
sample=Timpani_Soft_Mallet_staccato_FF_F2_RR6.opus

<region>
hivel=127
key=F3
lovel=104
sample=Timpani_Soft_Mallet_staccato_FF_F3_RR6.opus

<region>
hivel=127
key=G#2
lovel=104
sample=Timpani_Soft_Mallet_staccato_FF_G#2_RR6.opus

<region>
hivel=127
key=G#3
lovel=104
sample=Timpani_Soft_Mallet_staccato_FF_G#3_RR6.opus

<region>
hivel=127
key=G2
lovel=104
sample=Timpani_Soft_Mallet_staccato_FF_G2_RR6.opus

<region>
hivel=127
key=G3
lovel=104
sample=Timpani_Soft_Mallet_staccato_FF_G3_RR6.opus

<region>
hivel=77
key=A#2
lovel=52
sample=Timpani_Soft_Mallet_staccato_MF_A#2_RR6.opus

<region>
hivel=77
key=A2
lovel=52
sample=Timpani_Soft_Mallet_staccato_MF_A2_RR6.opus

<region>
hivel=77
key=A3
lovel=52
sample=Timpani_Soft_Mallet_staccato_MF_A3_RR6.opus

<region>
hivel=77
key=B2
lovel=52
sample=Timpani_Soft_Mallet_staccato_MF_B2_RR6.opus

<region>
hivel=77
key=C#2
lovel=52
sample=Timpani_Soft_Mallet_staccato_MF_C#2_RR6.opus

<region>
hivel=77
key=C#3
lovel=52
sample=Timpani_Soft_Mallet_staccato_MF_C#3_RR6.opus

<region>
hivel=77
key=C2
lovel=52
sample=Timpani_Soft_Mallet_staccato_MF_C2_RR6.opus

<region>
hivel=77
key=C3
lovel=52
sample=Timpani_Soft_Mallet_staccato_MF_C3_RR6.opus

<region>
hivel=77
key=D#2
lovel=52
sample=Timpani_Soft_Mallet_staccato_MF_D#2_RR6.opus

<region>
hivel=77
key=D#3
lovel=52
sample=Timpani_Soft_Mallet_staccato_MF_D#3_RR6.opus

<region>
hivel=77
key=D2
lovel=52
sample=Timpani_Soft_Mallet_staccato_MF_D2_RR6.opus

<region>
hivel=77
key=D3
lovel=52
sample=Timpani_Soft_Mallet_staccato_MF_D3_RR6.opus

<region>
hivel=77
key=E2
lovel=52
sample=Timpani_Soft_Mallet_staccato_MF_E2_RR6.opus

<region>
hivel=77
key=E3
lovel=52
sample=Timpani_Soft_Mallet_staccato_MF_E3_RR6.opus

<region>
hivel=77
key=F#2
lovel=52
sample=Timpani_Soft_Mallet_staccato_MF_F#2_RR6.opus

<region>
hivel=77
key=F#3
lovel=52
sample=Timpani_Soft_Mallet_staccato_MF_F#3_RR6.opus

<region>
hivel=77
key=F2
lovel=52
sample=Timpani_Soft_Mallet_staccato_MF_F2_RR6.opus

<region>
hivel=77
key=F3
lovel=52
sample=Timpani_Soft_Mallet_staccato_MF_F3_RR6.opus

<region>
hivel=77
key=G#2
lovel=52
sample=Timpani_Soft_Mallet_staccato_MF_G#2_RR6.opus

<region>
hivel=77
key=G#3
lovel=52
sample=Timpani_Soft_Mallet_staccato_MF_G#3_RR6.opus

<region>
hivel=77
key=G2
lovel=52
sample=Timpani_Soft_Mallet_staccato_MF_G2_RR6.opus

<region>
hivel=77
key=G3
lovel=52
sample=Timpani_Soft_Mallet_staccato_MF_G3_RR6.opus

<region>
hivel=51
key=A#2
lovel=26
sample=Timpani_Soft_Mallet_staccato_MP_A#2_RR6.opus

<region>
hivel=51
key=A2
lovel=26
sample=Timpani_Soft_Mallet_staccato_MP_A2_RR6.opus

<region>
hivel=51
key=A3
lovel=26
sample=Timpani_Soft_Mallet_staccato_MP_A3_RR6.opus

<region>
hivel=51
key=B2
lovel=26
sample=Timpani_Soft_Mallet_staccato_MP_B2_RR6.opus

<region>
hivel=51
key=C#2
lovel=26
sample=Timpani_Soft_Mallet_staccato_MP_C#2_RR6.opus

<region>
hivel=51
key=C#3
lovel=26
sample=Timpani_Soft_Mallet_staccato_MP_C#3_RR6.opus

<region>
hivel=51
key=C2
lovel=26
sample=Timpani_Soft_Mallet_staccato_MP_C2_RR6.opus

<region>
hivel=51
key=C3
lovel=26
sample=Timpani_Soft_Mallet_staccato_MP_C3_RR6.opus

<region>
hivel=51
key=D#2
lovel=26
sample=Timpani_Soft_Mallet_staccato_MP_D#2_RR6.opus

<region>
hivel=51
key=D#3
lovel=26
sample=Timpani_Soft_Mallet_staccato_MP_D#3_RR6.opus

<region>
hivel=51
key=D2
lovel=26
sample=Timpani_Soft_Mallet_staccato_MP_D2_RR6.opus

<region>
hivel=51
key=D3
lovel=26
sample=Timpani_Soft_Mallet_staccato_MP_D3_RR6.opus

<region>
hivel=51
key=E2
lovel=26
sample=Timpani_Soft_Mallet_staccato_MP_E2_RR6.opus

<region>
hivel=51
key=E3
lovel=26
sample=Timpani_Soft_Mallet_staccato_MP_E3_RR6.opus

<region>
hivel=51
key=F#2
lovel=26
sample=Timpani_Soft_Mallet_staccato_MP_F#2_RR6.opus

<region>
hivel=51
key=F#3
lovel=26
sample=Timpani_Soft_Mallet_staccato_MP_F#3_RR6.opus

<region>
hivel=51
key=F2
lovel=26
sample=Timpani_Soft_Mallet_staccato_MP_F2_RR6.opus

<region>
hivel=51
key=F3
lovel=26
sample=Timpani_Soft_Mallet_staccato_MP_F3_RR6.opus

<region>
hivel=51
key=G#2
lovel=26
sample=Timpani_Soft_Mallet_staccato_MP_G#2_RR6.opus

<region>
hivel=51
key=G#3
lovel=26
sample=Timpani_Soft_Mallet_staccato_MP_G#3_RR6.opus

<region>
hivel=51
key=G2
lovel=26
sample=Timpani_Soft_Mallet_staccato_MP_G2_RR6.opus

<region>
hivel=51
key=G3
lovel=26
sample=Timpani_Soft_Mallet_staccato_MP_G3_RR6.opus

<region>
hivel=25
key=A#2
lovel=0
sample=Timpani_Soft_Mallet_staccato_P_A#2_RR6.opus

<region>
hivel=25
key=A2
lovel=0
sample=Timpani_Soft_Mallet_staccato_P_A2_RR6.opus

<region>
hivel=25
key=A3
lovel=0
sample=Timpani_Soft_Mallet_staccato_P_A3_RR6.opus

<region>
hivel=25
key=B2
lovel=0
sample=Timpani_Soft_Mallet_staccato_P_B2_RR6.opus

<region>
hivel=25
key=C#2
lovel=0
sample=Timpani_Soft_Mallet_staccato_P_C#2_RR6.opus

<region>
hivel=25
key=C#3
lovel=0
sample=Timpani_Soft_Mallet_staccato_P_C#3_RR6.opus

<region>
hivel=25
key=C2
lovel=0
sample=Timpani_Soft_Mallet_staccato_P_C2_RR6.opus

<region>
hivel=25
key=C3
lovel=0
sample=Timpani_Soft_Mallet_staccato_P_C3_RR6.opus

<region>
hivel=25
key=D#2
lovel=0
sample=Timpani_Soft_Mallet_staccato_P_D#2_RR6.opus

<region>
hivel=25
key=D#3
lovel=0
sample=Timpani_Soft_Mallet_staccato_P_D#3_RR6.opus

<region>
hivel=25
key=D2
lovel=0
sample=Timpani_Soft_Mallet_staccato_P_D2_RR6.opus

<region>
hivel=25
key=D3
lovel=0
sample=Timpani_Soft_Mallet_staccato_P_D3_RR6.opus

<region>
hivel=25
key=E2
lovel=0
sample=Timpani_Soft_Mallet_staccato_P_E2_RR6.opus

<region>
hivel=25
key=E3
lovel=0
sample=Timpani_Soft_Mallet_staccato_P_E3_RR6.opus

<region>
hivel=25
key=F#2
lovel=0
sample=Timpani_Soft_Mallet_staccato_P_F#2_RR6.opus

<region>
hivel=25
key=F#3
lovel=0
sample=Timpani_Soft_Mallet_staccato_P_F#3_RR6.opus

<region>
hivel=25
key=F2
lovel=0
sample=Timpani_Soft_Mallet_staccato_P_F2_RR6.opus

<region>
hivel=25
key=F3
lovel=0
sample=Timpani_Soft_Mallet_staccato_P_F3_RR6.opus

<region>
hivel=25
key=G#2
lovel=0
sample=Timpani_Soft_Mallet_staccato_P_G#2_RR6.opus

<region>
hivel=25
key=G#3
lovel=0
sample=Timpani_Soft_Mallet_staccato_P_G#3_RR6.opus

<region>
hivel=25
key=G2
lovel=0
sample=Timpani_Soft_Mallet_staccato_P_G2_RR6.opus

<region>
hivel=25
key=G3
lovel=0
sample=Timpani_Soft_Mallet_staccato_P_G3_RR6.opus

<group>
group_label=RR7
seq_length=4
seq_position=3

<region>
hivel=103
key=A#2
lovel=78
sample=Timpani_Soft_Mallet_staccato_F_A#2_RR7.opus

<region>
hivel=103
key=A2
lovel=78
sample=Timpani_Soft_Mallet_staccato_F_A2_RR7.opus

<region>
hivel=103
key=A3
lovel=78
sample=Timpani_Soft_Mallet_staccato_F_A3_RR7.opus

<region>
hivel=103
key=B2
lovel=78
sample=Timpani_Soft_Mallet_staccato_F_B2_RR7.opus

<region>
hivel=103
key=C#2
lovel=78
sample=Timpani_Soft_Mallet_staccato_F_C#2_RR7.opus

<region>
hivel=103
key=C#3
lovel=78
sample=Timpani_Soft_Mallet_staccato_F_C#3_RR7.opus

<region>
hivel=103
key=C2
lovel=78
sample=Timpani_Soft_Mallet_staccato_F_C2_RR7.opus

<region>
hivel=103
key=C3
lovel=78
sample=Timpani_Soft_Mallet_staccato_F_C3_RR7.opus

<region>
hivel=103
key=D#2
lovel=78
sample=Timpani_Soft_Mallet_staccato_F_D#2_RR7.opus

<region>
hivel=103
key=D#3
lovel=78
sample=Timpani_Soft_Mallet_staccato_F_D#3_RR7.opus

<region>
hivel=103
key=D2
lovel=78
sample=Timpani_Soft_Mallet_staccato_F_D2_RR7.opus

<region>
hivel=103
key=D3
lovel=78
sample=Timpani_Soft_Mallet_staccato_F_D3_RR7.opus

<region>
hivel=103
key=E2
lovel=78
sample=Timpani_Soft_Mallet_staccato_F_E2_RR7.opus

<region>
hivel=103
key=E3
lovel=78
sample=Timpani_Soft_Mallet_staccato_F_E3_RR7.opus

<region>
hivel=103
key=F#2
lovel=78
sample=Timpani_Soft_Mallet_staccato_F_F#2_RR7.opus

<region>
hivel=103
key=F#3
lovel=78
sample=Timpani_Soft_Mallet_staccato_F_F#3_RR7.opus

<region>
hivel=103
key=F2
lovel=78
sample=Timpani_Soft_Mallet_staccato_F_F2_RR7.opus

<region>
hivel=103
key=F3
lovel=78
sample=Timpani_Soft_Mallet_staccato_F_F3_RR7.opus

<region>
hivel=103
key=G#2
lovel=78
sample=Timpani_Soft_Mallet_staccato_F_G#2_RR7.opus

<region>
hivel=103
key=G#3
lovel=78
sample=Timpani_Soft_Mallet_staccato_F_G#3_RR7.opus

<region>
hivel=103
key=G2
lovel=78
sample=Timpani_Soft_Mallet_staccato_F_G2_RR7.opus

<region>
hivel=103
key=G3
lovel=78
sample=Timpani_Soft_Mallet_staccato_F_G3_RR7.opus

<region>
hivel=127
key=A#2
lovel=104
sample=Timpani_Soft_Mallet_staccato_FF_A#2_RR7.opus

<region>
hivel=127
key=A2
lovel=104
sample=Timpani_Soft_Mallet_staccato_FF_A2_RR7.opus

<region>
hivel=127
key=A3
lovel=104
sample=Timpani_Soft_Mallet_staccato_FF_A3_RR7.opus

<region>
hivel=127
key=B2
lovel=104
sample=Timpani_Soft_Mallet_staccato_FF_B2_RR7.opus

<region>
hivel=127
key=C#2
lovel=104
sample=Timpani_Soft_Mallet_staccato_FF_C#2_RR7.opus

<region>
hivel=127
key=C#3
lovel=104
sample=Timpani_Soft_Mallet_staccato_FF_C#3_RR7.opus

<region>
hivel=127
key=C2
lovel=104
sample=Timpani_Soft_Mallet_staccato_FF_C2_RR7.opus

<region>
hivel=127
key=C3
lovel=104
sample=Timpani_Soft_Mallet_staccato_FF_C3_RR7.opus

<region>
hivel=127
key=D#2
lovel=104
sample=Timpani_Soft_Mallet_staccato_FF_D#2_RR7.opus

<region>
hivel=127
key=D#3
lovel=104
sample=Timpani_Soft_Mallet_staccato_FF_D#3_RR7.opus

<region>
hivel=127
key=D2
lovel=104
sample=Timpani_Soft_Mallet_staccato_FF_D2_RR7.opus

<region>
hivel=127
key=D3
lovel=104
sample=Timpani_Soft_Mallet_staccato_FF_D3_RR7.opus

<region>
hivel=127
key=E2
lovel=104
sample=Timpani_Soft_Mallet_staccato_FF_E2_RR7.opus

<region>
hivel=127
key=E3
lovel=104
sample=Timpani_Soft_Mallet_staccato_FF_E3_RR7.opus

<region>
hivel=127
key=F#2
lovel=104
sample=Timpani_Soft_Mallet_staccato_FF_F#2_RR7.opus

<region>
hivel=127
key=F#3
lovel=104
sample=Timpani_Soft_Mallet_staccato_FF_F#3_RR7.opus

<region>
hivel=127
key=F2
lovel=104
sample=Timpani_Soft_Mallet_staccato_FF_F2_RR7.opus

<region>
hivel=127
key=F3
lovel=104
sample=Timpani_Soft_Mallet_staccato_FF_F3_RR7.opus

<region>
hivel=127
key=G#2
lovel=104
sample=Timpani_Soft_Mallet_staccato_FF_G#2_RR7.opus

<region>
hivel=127
key=G#3
lovel=104
sample=Timpani_Soft_Mallet_staccato_FF_G#3_RR7.opus

<region>
hivel=127
key=G2
lovel=104
sample=Timpani_Soft_Mallet_staccato_FF_G2_RR7.opus

<region>
hivel=127
key=G3
lovel=104
sample=Timpani_Soft_Mallet_staccato_FF_G3_RR7.opus

<region>
hivel=77
key=A#2
lovel=52
sample=Timpani_Soft_Mallet_staccato_MF_A#2_RR7.opus

<region>
hivel=77
key=A2
lovel=52
sample=Timpani_Soft_Mallet_staccato_MF_A2_RR7.opus

<region>
hivel=77
key=A3
lovel=52
sample=Timpani_Soft_Mallet_staccato_MF_A3_RR7.opus

<region>
hivel=77
key=B2
lovel=52
sample=Timpani_Soft_Mallet_staccato_MF_B2_RR7.opus

<region>
hivel=77
key=C#2
lovel=52
sample=Timpani_Soft_Mallet_staccato_MF_C#2_RR7.opus

<region>
hivel=77
key=C#3
lovel=52
sample=Timpani_Soft_Mallet_staccato_MF_C#3_RR7.opus

<region>
hivel=77
key=C2
lovel=52
sample=Timpani_Soft_Mallet_staccato_MF_C2_RR7.opus

<region>
hivel=77
key=C3
lovel=52
sample=Timpani_Soft_Mallet_staccato_MF_C3_RR7.opus

<region>
hivel=77
key=D#2
lovel=52
sample=Timpani_Soft_Mallet_staccato_MF_D#2_RR7.opus

<region>
hivel=77
key=D#3
lovel=52
sample=Timpani_Soft_Mallet_staccato_MF_D#3_RR7.opus

<region>
hivel=77
key=D2
lovel=52
sample=Timpani_Soft_Mallet_staccato_MF_D2_RR7.opus

<region>
hivel=77
key=D3
lovel=52
sample=Timpani_Soft_Mallet_staccato_MF_D3_RR7.opus

<region>
hivel=77
key=E2
lovel=52
sample=Timpani_Soft_Mallet_staccato_MF_E2_RR7.opus

<region>
hivel=77
key=E3
lovel=52
sample=Timpani_Soft_Mallet_staccato_MF_E3_RR7.opus

<region>
hivel=77
key=F#2
lovel=52
sample=Timpani_Soft_Mallet_staccato_MF_F#2_RR7.opus

<region>
hivel=77
key=F#3
lovel=52
sample=Timpani_Soft_Mallet_staccato_MF_F#3_RR7.opus

<region>
hivel=77
key=F2
lovel=52
sample=Timpani_Soft_Mallet_staccato_MF_F2_RR7.opus

<region>
hivel=77
key=F3
lovel=52
sample=Timpani_Soft_Mallet_staccato_MF_F3_RR7.opus

<region>
hivel=77
key=G#2
lovel=52
sample=Timpani_Soft_Mallet_staccato_MF_G#2_RR7.opus

<region>
hivel=77
key=G#3
lovel=52
sample=Timpani_Soft_Mallet_staccato_MF_G#3_RR7.opus

<region>
hivel=77
key=G2
lovel=52
sample=Timpani_Soft_Mallet_staccato_MF_G2_RR7.opus

<region>
hivel=77
key=G3
lovel=52
sample=Timpani_Soft_Mallet_staccato_MF_G3_RR7.opus

<region>
hivel=51
key=A#2
lovel=26
sample=Timpani_Soft_Mallet_staccato_MP_A#2_RR7.opus

<region>
hivel=51
key=A2
lovel=26
sample=Timpani_Soft_Mallet_staccato_MP_A2_RR7.opus

<region>
hivel=51
key=A3
lovel=26
sample=Timpani_Soft_Mallet_staccato_MP_A3_RR7.opus

<region>
hivel=51
key=B2
lovel=26
sample=Timpani_Soft_Mallet_staccato_MP_B2_RR7.opus

<region>
hivel=51
key=C#2
lovel=26
sample=Timpani_Soft_Mallet_staccato_MP_C#2_RR7.opus

<region>
hivel=51
key=C#3
lovel=26
sample=Timpani_Soft_Mallet_staccato_MP_C#3_RR7.opus

<region>
hivel=51
key=C2
lovel=26
sample=Timpani_Soft_Mallet_staccato_MP_C2_RR7.opus

<region>
hivel=51
key=C3
lovel=26
sample=Timpani_Soft_Mallet_staccato_MP_C3_RR7.opus

<region>
hivel=51
key=D#2
lovel=26
sample=Timpani_Soft_Mallet_staccato_MP_D#2_RR7.opus

<region>
hivel=51
key=D#3
lovel=26
sample=Timpani_Soft_Mallet_staccato_MP_D#3_RR7.opus

<region>
hivel=51
key=D2
lovel=26
sample=Timpani_Soft_Mallet_staccato_MP_D2_RR7.opus

<region>
hivel=51
key=D3
lovel=26
sample=Timpani_Soft_Mallet_staccato_MP_D3_RR7.opus

<region>
hivel=51
key=E2
lovel=26
sample=Timpani_Soft_Mallet_staccato_MP_E2_RR7.opus

<region>
hivel=51
key=E3
lovel=26
sample=Timpani_Soft_Mallet_staccato_MP_E3_RR7.opus

<region>
hivel=51
key=F#2
lovel=26
sample=Timpani_Soft_Mallet_staccato_MP_F#2_RR7.opus

<region>
hivel=51
key=F#3
lovel=26
sample=Timpani_Soft_Mallet_staccato_MP_F#3_RR7.opus

<region>
hivel=51
key=F2
lovel=26
sample=Timpani_Soft_Mallet_staccato_MP_F2_RR7.opus

<region>
hivel=51
key=F3
lovel=26
sample=Timpani_Soft_Mallet_staccato_MP_F3_RR7.opus

<region>
hivel=51
key=G#2
lovel=26
sample=Timpani_Soft_Mallet_staccato_MP_G#2_RR7.opus

<region>
hivel=51
key=G#3
lovel=26
sample=Timpani_Soft_Mallet_staccato_MP_G#3_RR7.opus

<region>
hivel=51
key=G2
lovel=26
sample=Timpani_Soft_Mallet_staccato_MP_G2_RR7.opus

<region>
hivel=51
key=G3
lovel=26
sample=Timpani_Soft_Mallet_staccato_MP_G3_RR7.opus

<region>
hivel=25
key=A#2
lovel=0
sample=Timpani_Soft_Mallet_staccato_P_A#2_RR7.opus

<region>
hivel=25
key=A2
lovel=0
sample=Timpani_Soft_Mallet_staccato_P_A2_RR7.opus

<region>
hivel=25
key=A3
lovel=0
sample=Timpani_Soft_Mallet_staccato_P_A3_RR7.opus

<region>
hivel=25
key=B2
lovel=0
sample=Timpani_Soft_Mallet_staccato_P_B2_RR7.opus

<region>
hivel=25
key=C#2
lovel=0
sample=Timpani_Soft_Mallet_staccato_P_C#2_RR7.opus

<region>
hivel=25
key=C#3
lovel=0
sample=Timpani_Soft_Mallet_staccato_P_C#3_RR7.opus

<region>
hivel=25
key=C2
lovel=0
sample=Timpani_Soft_Mallet_staccato_P_C2_RR7.opus

<region>
hivel=25
key=C3
lovel=0
sample=Timpani_Soft_Mallet_staccato_P_C3_RR7.opus

<region>
hivel=25
key=D#2
lovel=0
sample=Timpani_Soft_Mallet_staccato_P_D#2_RR7.opus

<region>
hivel=25
key=D#3
lovel=0
sample=Timpani_Soft_Mallet_staccato_P_D#3_RR7.opus

<region>
hivel=25
key=D2
lovel=0
sample=Timpani_Soft_Mallet_staccato_P_D2_RR7.opus

<region>
hivel=25
key=D3
lovel=0
sample=Timpani_Soft_Mallet_staccato_P_D3_RR7.opus

<region>
hivel=25
key=E2
lovel=0
sample=Timpani_Soft_Mallet_staccato_P_E2_RR7.opus

<region>
hivel=25
key=E3
lovel=0
sample=Timpani_Soft_Mallet_staccato_P_E3_RR7.opus

<region>
hivel=25
key=F#2
lovel=0
sample=Timpani_Soft_Mallet_staccato_P_F#2_RR7.opus

<region>
hivel=25
key=F#3
lovel=0
sample=Timpani_Soft_Mallet_staccato_P_F#3_RR7.opus

<region>
hivel=25
key=F2
lovel=0
sample=Timpani_Soft_Mallet_staccato_P_F2_RR7.opus

<region>
hivel=25
key=F3
lovel=0
sample=Timpani_Soft_Mallet_staccato_P_F3_RR7.opus

<region>
hivel=25
key=G#2
lovel=0
sample=Timpani_Soft_Mallet_staccato_P_G#2_RR7.opus

<region>
hivel=25
key=G#3
lovel=0
sample=Timpani_Soft_Mallet_staccato_P_G#3_RR7.opus

<region>
hivel=25
key=G2
lovel=0
sample=Timpani_Soft_Mallet_staccato_P_G2_RR7.opus

<region>
hivel=25
key=G3
lovel=0
sample=Timpani_Soft_Mallet_staccato_P_G3_RR7.opus

<group>
group_label=RR8
seq_length=4
seq_position=4

<region>
hivel=103
key=A#2
lovel=78
sample=Timpani_Soft_Mallet_staccato_F_A#2_RR8.opus

<region>
hivel=103
key=A2
lovel=78
sample=Timpani_Soft_Mallet_staccato_F_A2_RR8.opus

<region>
hivel=103
key=A3
lovel=78
sample=Timpani_Soft_Mallet_staccato_F_A3_RR8.opus

<region>
hivel=103
key=B2
lovel=78
sample=Timpani_Soft_Mallet_staccato_F_B2_RR8.opus

<region>
hivel=103
key=C#2
lovel=78
sample=Timpani_Soft_Mallet_staccato_F_C#2_RR8.opus

<region>
hivel=103
key=C#3
lovel=78
sample=Timpani_Soft_Mallet_staccato_F_C#3_RR8.opus

<region>
hivel=103
key=C2
lovel=78
sample=Timpani_Soft_Mallet_staccato_F_C2_RR8.opus

<region>
hivel=103
key=C3
lovel=78
sample=Timpani_Soft_Mallet_staccato_F_C3_RR8.opus

<region>
hivel=103
key=D#2
lovel=78
sample=Timpani_Soft_Mallet_staccato_F_D#2_RR8.opus

<region>
hivel=103
key=D#3
lovel=78
sample=Timpani_Soft_Mallet_staccato_F_D#3_RR8.opus

<region>
hivel=103
key=D2
lovel=78
sample=Timpani_Soft_Mallet_staccato_F_D2_RR8.opus

<region>
hivel=103
key=D3
lovel=78
sample=Timpani_Soft_Mallet_staccato_F_D3_RR8.opus

<region>
hivel=103
key=E2
lovel=78
sample=Timpani_Soft_Mallet_staccato_F_E2_RR8.opus

<region>
hivel=103
key=E3
lovel=78
sample=Timpani_Soft_Mallet_staccato_F_E3_RR8.opus

<region>
hivel=103
key=F#2
lovel=78
sample=Timpani_Soft_Mallet_staccato_F_F#2_RR8.opus

<region>
hivel=103
key=F#3
lovel=78
sample=Timpani_Soft_Mallet_staccato_F_F#3_RR8.opus

<region>
hivel=103
key=F2
lovel=78
sample=Timpani_Soft_Mallet_staccato_F_F2_RR8.opus

<region>
hivel=103
key=F3
lovel=78
sample=Timpani_Soft_Mallet_staccato_F_F3_RR8.opus

<region>
hivel=103
key=G#2
lovel=78
sample=Timpani_Soft_Mallet_staccato_F_G#2_RR8.opus

<region>
hivel=103
key=G#3
lovel=78
sample=Timpani_Soft_Mallet_staccato_F_G#3_RR8.opus

<region>
hivel=103
key=G2
lovel=78
sample=Timpani_Soft_Mallet_staccato_F_G2_RR8.opus

<region>
hivel=103
key=G3
lovel=78
sample=Timpani_Soft_Mallet_staccato_F_G3_RR8.opus

<region>
hivel=127
key=A#2
lovel=104
sample=Timpani_Soft_Mallet_staccato_FF_A#2_RR8.opus

<region>
hivel=127
key=A2
lovel=104
sample=Timpani_Soft_Mallet_staccato_FF_A2_RR8.opus

<region>
hivel=127
key=A3
lovel=104
sample=Timpani_Soft_Mallet_staccato_FF_A3_RR8.opus

<region>
hivel=127
key=B2
lovel=104
sample=Timpani_Soft_Mallet_staccato_FF_B2_RR8.opus

<region>
hivel=127
key=C#2
lovel=104
sample=Timpani_Soft_Mallet_staccato_FF_C#2_RR8.opus

<region>
hivel=127
key=C#3
lovel=104
sample=Timpani_Soft_Mallet_staccato_FF_C#3_RR8.opus

<region>
hivel=127
key=C2
lovel=104
sample=Timpani_Soft_Mallet_staccato_FF_C2_RR8.opus

<region>
hivel=127
key=C3
lovel=104
sample=Timpani_Soft_Mallet_staccato_FF_C3_RR8.opus

<region>
hivel=127
key=D#2
lovel=104
sample=Timpani_Soft_Mallet_staccato_FF_D#2_RR8.opus

<region>
hivel=127
key=D#3
lovel=104
sample=Timpani_Soft_Mallet_staccato_FF_D#3_RR8.opus

<region>
hivel=127
key=D2
lovel=104
sample=Timpani_Soft_Mallet_staccato_FF_D2_RR8.opus

<region>
hivel=127
key=D3
lovel=104
sample=Timpani_Soft_Mallet_staccato_FF_D3_RR8.opus

<region>
hivel=127
key=E2
lovel=104
sample=Timpani_Soft_Mallet_staccato_FF_E2_RR8.opus

<region>
hivel=127
key=E3
lovel=104
sample=Timpani_Soft_Mallet_staccato_FF_E3_RR8.opus

<region>
hivel=127
key=F#2
lovel=104
sample=Timpani_Soft_Mallet_staccato_FF_F#2_RR8.opus

<region>
hivel=127
key=F#3
lovel=104
sample=Timpani_Soft_Mallet_staccato_FF_F#3_RR8.opus

<region>
hivel=127
key=F2
lovel=104
sample=Timpani_Soft_Mallet_staccato_FF_F2_RR8.opus

<region>
hivel=127
key=F3
lovel=104
sample=Timpani_Soft_Mallet_staccato_FF_F3_RR8.opus

<region>
hivel=127
key=G#2
lovel=104
sample=Timpani_Soft_Mallet_staccato_FF_G#2_RR8.opus

<region>
hivel=127
key=G#3
lovel=104
sample=Timpani_Soft_Mallet_staccato_FF_G#3_RR8.opus

<region>
hivel=127
key=G2
lovel=104
sample=Timpani_Soft_Mallet_staccato_FF_G2_RR8.opus

<region>
hivel=127
key=G3
lovel=104
sample=Timpani_Soft_Mallet_staccato_FF_G3_RR8.opus

<region>
hivel=77
key=A#2
lovel=52
sample=Timpani_Soft_Mallet_staccato_MF_A#2_RR8.opus

<region>
hivel=77
key=A2
lovel=52
sample=Timpani_Soft_Mallet_staccato_MF_A2_RR8.opus

<region>
hivel=77
key=A3
lovel=52
sample=Timpani_Soft_Mallet_staccato_MF_A3_RR8.opus

<region>
hivel=77
key=B2
lovel=52
sample=Timpani_Soft_Mallet_staccato_MF_B2_RR8.opus

<region>
hivel=77
key=C#2
lovel=52
sample=Timpani_Soft_Mallet_staccato_MF_C#2_RR8.opus

<region>
hivel=77
key=C#3
lovel=52
sample=Timpani_Soft_Mallet_staccato_MF_C#3_RR8.opus

<region>
hivel=77
key=C2
lovel=52
sample=Timpani_Soft_Mallet_staccato_MF_C2_RR8.opus

<region>
hivel=77
key=C3
lovel=52
sample=Timpani_Soft_Mallet_staccato_MF_C3_RR8.opus

<region>
hivel=77
key=D#2
lovel=52
sample=Timpani_Soft_Mallet_staccato_MF_D#2_RR8.opus

<region>
hivel=77
key=D#3
lovel=52
sample=Timpani_Soft_Mallet_staccato_MF_D#3_RR8.opus

<region>
hivel=77
key=D2
lovel=52
sample=Timpani_Soft_Mallet_staccato_MF_D2_RR8.opus

<region>
hivel=77
key=D3
lovel=52
sample=Timpani_Soft_Mallet_staccato_MF_D3_RR8.opus

<region>
hivel=77
key=E2
lovel=52
sample=Timpani_Soft_Mallet_staccato_MF_E2_RR8.opus

<region>
hivel=77
key=E3
lovel=52
sample=Timpani_Soft_Mallet_staccato_MF_E3_RR8.opus

<region>
hivel=77
key=F#2
lovel=52
sample=Timpani_Soft_Mallet_staccato_MF_F#2_RR8.opus

<region>
hivel=77
key=F#3
lovel=52
sample=Timpani_Soft_Mallet_staccato_MF_F#3_RR8.opus

<region>
hivel=77
key=F2
lovel=52
sample=Timpani_Soft_Mallet_staccato_MF_F2_RR8.opus

<region>
hivel=77
key=F3
lovel=52
sample=Timpani_Soft_Mallet_staccato_MF_F3_RR8.opus

<region>
hivel=77
key=G#2
lovel=52
sample=Timpani_Soft_Mallet_staccato_MF_G#2_RR8.opus

<region>
hivel=77
key=G#3
lovel=52
sample=Timpani_Soft_Mallet_staccato_MF_G#3_RR8.opus

<region>
hivel=77
key=G2
lovel=52
sample=Timpani_Soft_Mallet_staccato_MF_G2_RR8.opus

<region>
hivel=77
key=G3
lovel=52
sample=Timpani_Soft_Mallet_staccato_MF_G3_RR8.opus

<region>
hivel=51
key=A#2
lovel=26
sample=Timpani_Soft_Mallet_staccato_MP_A#2_RR8.opus

<region>
hivel=51
key=A2
lovel=26
sample=Timpani_Soft_Mallet_staccato_MP_A2_RR8.opus

<region>
hivel=51
key=A3
lovel=26
sample=Timpani_Soft_Mallet_staccato_MP_A3_RR8.opus

<region>
hivel=51
key=B2
lovel=26
sample=Timpani_Soft_Mallet_staccato_MP_B2_RR8.opus

<region>
hivel=51
key=C#2
lovel=26
sample=Timpani_Soft_Mallet_staccato_MP_C#2_RR8.opus

<region>
hivel=51
key=C#3
lovel=26
sample=Timpani_Soft_Mallet_staccato_MP_C#3_RR8.opus

<region>
hivel=51
key=C2
lovel=26
sample=Timpani_Soft_Mallet_staccato_MP_C2_RR8.opus

<region>
hivel=51
key=C3
lovel=26
sample=Timpani_Soft_Mallet_staccato_MP_C3_RR8.opus

<region>
hivel=51
key=D#2
lovel=26
sample=Timpani_Soft_Mallet_staccato_MP_D#2_RR8.opus

<region>
hivel=51
key=D#3
lovel=26
sample=Timpani_Soft_Mallet_staccato_MP_D#3_RR8.opus

<region>
hivel=51
key=D2
lovel=26
sample=Timpani_Soft_Mallet_staccato_MP_D2_RR8.opus

<region>
hivel=51
key=D3
lovel=26
sample=Timpani_Soft_Mallet_staccato_MP_D3_RR8.opus

<region>
hivel=51
key=E2
lovel=26
sample=Timpani_Soft_Mallet_staccato_MP_E2_RR8.opus

<region>
hivel=51
key=E3
lovel=26
sample=Timpani_Soft_Mallet_staccato_MP_E3_RR8.opus

<region>
hivel=51
key=F#2
lovel=26
sample=Timpani_Soft_Mallet_staccato_MP_F#2_RR8.opus

<region>
hivel=51
key=F#3
lovel=26
sample=Timpani_Soft_Mallet_staccato_MP_F#3_RR8.opus

<region>
hivel=51
key=F2
lovel=26
sample=Timpani_Soft_Mallet_staccato_MP_F2_RR8.opus

<region>
hivel=51
key=F3
lovel=26
sample=Timpani_Soft_Mallet_staccato_MP_F3_RR8.opus

<region>
hivel=51
key=G#2
lovel=26
sample=Timpani_Soft_Mallet_staccato_MP_G#2_RR8.opus

<region>
hivel=51
key=G#3
lovel=26
sample=Timpani_Soft_Mallet_staccato_MP_G#3_RR8.opus

<region>
hivel=51
key=G2
lovel=26
sample=Timpani_Soft_Mallet_staccato_MP_G2_RR8.opus

<region>
hivel=51
key=G3
lovel=26
sample=Timpani_Soft_Mallet_staccato_MP_G3_RR8.opus

<region>
hivel=25
key=A#2
lovel=0
sample=Timpani_Soft_Mallet_staccato_P_A#2_RR8.opus

<region>
hivel=25
key=A2
lovel=0
sample=Timpani_Soft_Mallet_staccato_P_A2_RR8.opus

<region>
hivel=25
key=A3
lovel=0
sample=Timpani_Soft_Mallet_staccato_P_A3_RR8.opus

<region>
hivel=25
key=B2
lovel=0
sample=Timpani_Soft_Mallet_staccato_P_B2_RR8.opus

<region>
hivel=25
key=C#2
lovel=0
sample=Timpani_Soft_Mallet_staccato_P_C#2_RR8.opus

<region>
hivel=25
key=C#3
lovel=0
sample=Timpani_Soft_Mallet_staccato_P_C#3_RR8.opus

<region>
hivel=25
key=C2
lovel=0
sample=Timpani_Soft_Mallet_staccato_P_C2_RR8.opus

<region>
hivel=25
key=C3
lovel=0
sample=Timpani_Soft_Mallet_staccato_P_C3_RR8.opus

<region>
hivel=25
key=D#2
lovel=0
sample=Timpani_Soft_Mallet_staccato_P_D#2_RR8.opus

<region>
hivel=25
key=D#3
lovel=0
sample=Timpani_Soft_Mallet_staccato_P_D#3_RR8.opus

<region>
hivel=25
key=D2
lovel=0
sample=Timpani_Soft_Mallet_staccato_P_D2_RR8.opus

<region>
hivel=25
key=D3
lovel=0
sample=Timpani_Soft_Mallet_staccato_P_D3_RR8.opus

<region>
hivel=25
key=E2
lovel=0
sample=Timpani_Soft_Mallet_staccato_P_E2_RR8.opus

<region>
hivel=25
key=E3
lovel=0
sample=Timpani_Soft_Mallet_staccato_P_E3_RR8.opus

<region>
hivel=25
key=F#2
lovel=0
sample=Timpani_Soft_Mallet_staccato_P_F#2_RR8.opus

<region>
hivel=25
key=F#3
lovel=0
sample=Timpani_Soft_Mallet_staccato_P_F#3_RR8.opus

<region>
hivel=25
key=F2
lovel=0
sample=Timpani_Soft_Mallet_staccato_P_F2_RR8.opus

<region>
hivel=25
key=F3
lovel=0
sample=Timpani_Soft_Mallet_staccato_P_F3_RR8.opus

<region>
hivel=25
key=G#2
lovel=0
sample=Timpani_Soft_Mallet_staccato_P_G#2_RR8.opus

<region>
hivel=25
key=G#3
lovel=0
sample=Timpani_Soft_Mallet_staccato_P_G#3_RR8.opus

<region>
hivel=25
key=G2
lovel=0
sample=Timpani_Soft_Mallet_staccato_P_G2_RR8.opus

<region>
hivel=25
key=G3
lovel=0
sample=Timpani_Soft_Mallet_staccato_P_G3_RR8.opus

